<?xml version="1.0" encoding="UTF-8"?><svg id="a" xmlns="http://www.w3.org/2000/svg" viewBox="0 0 48.59 43.67"><path d="M44.94,2.62c-11.37,0-22.75-.01-34.12,.01-1.46,0-2.91,.21-3.67-1.53-.15-.35-.69-.71-1.09-.75C4.36,.15,2.64,0,.93,0,.6,0-.05,.85,0,1.22c.07,.48,.64,1.11,1.12,1.25,.76,.21,1.63,.07,2.45,.08,1.85,0,2.11,.21,2.48,2,1.6,7.78,3.19,15.57,4.8,23.35,.67,3.24,2.59,4.81,5.84,4.81,8.22,0,16.45,0,24.66,0,.23,0,.46,0,.69,0,.83-.05,1.44-.4,1.46-1.3,.02-.9-.57-1.29-1.4-1.35-.36-.03-.73-.01-1.09-.01-8.13,0-16.26,0-24.39,0-1.74,0-2.68-.53-3.1-1.91-.35-1.12-.53-2.3-.83-3.64h1.77c8.18,0,16.35,0,24.53,0,3.41,0,5.37-1.52,6.2-4.82,1.05-4.21,2.1-8.41,3.16-12.62,.78-3.11-.22-4.42-3.39-4.42Zm.93,3.8c-1.05,4.25-2.11,8.5-3.18,12.75-.51,2-1.34,2.64-3.39,2.64-8.63,0-17.25,0-25.88,0-.59,0-1.28,.24-1.48-.74-1.03-5.19-2.1-10.37-3.19-15.72H46.02c-.05,.4-.06,.75-.15,1.07Z"/><path d="M16.36,34.16c-2.43-.11-4.75,2.14-4.81,4.66-.06,2.51,2.11,4.8,4.62,4.85,2.42,.05,4.64-2.1,4.73-4.59,.09-2.55-1.98-4.8-4.53-4.92Zm-.25,6.84c-1.18-.06-2.04-.97-2.01-2.14,.04-1.22,1.01-2.09,2.26-2.03,1.19,.06,2.04,.97,2.01,2.14-.04,1.22-1.01,2.09-2.26,2.03Z"/><path d="M38.15,34.16c-2.5,0-4.71,2.28-4.68,4.8,.03,2.48,2.16,4.66,4.63,4.71,2.49,.05,4.72-2.17,4.73-4.73,.02-2.55-2.17-4.79-4.68-4.78Zm0,6.84c-1.25,0-2.17-.93-2.13-2.16,.04-1.17,.93-2.02,2.14-2.02,1.26,0,2.17,.93,2.13,2.16-.04,1.18-.93,2.02-2.14,2.02Z"/></svg>