<?xml version="1.0" encoding="UTF-8"?><svg id="a" xmlns="http://www.w3.org/2000/svg" viewBox="0 0 43.44 43.88"><path d="M43.33,41.75c-.11-.39-.59-.68-.91-1-3.78-3.67-7.56-7.34-11.38-11.06,3.39-4.3,4.91-8.84,4.29-13.98-.62-5.2-3.11-9.34-7.32-12.41C20.98-1.83,11.1-.88,4.94,5.47-1.18,11.77-1.65,21.79,3.72,28.79c4.7,6.14,15.66,10.35,25.91,2.43,2.73,2.83,5.49,5.7,8.27,8.55,1.22,1.25,2.47,2.46,3.71,3.67,.55,.53,1.25,.65,1.64-.02,.26-.43,.21-1.15,.07-1.68Zm-25.66-8.77c-8.38,0-15.17-6.84-15.16-15.23,.02-8.37,6.84-15.11,15.28-15.1,8.36,0,15.22,6.89,15.18,15.23-.04,8.36-6.88,15.11-15.31,15.1Z"/></svg>