<?xml version="1.0" encoding="UTF-8"?><svg id="a" xmlns="http://www.w3.org/2000/svg" viewBox="0 0 39.41 45.27"><path d="M27.62,27.58c-3.98-.74-8.16-.72-12.24-.61C6.94,27.21,.53,33.46,.02,41.62c-.17,2.68,.72,3.64,3.39,3.64,5.42,0,10.85,0,16.27,0s11.13,0,16.7,0c1.9,0,3.03-1.06,3.03-2.78,.04-6.95-4.95-13.63-11.8-14.9ZM2.61,42.42c.05-2.75,.81-5.18,2.4-7.31,2.66-3.55,6.21-5.44,10.66-5.42,3.62,.02,7.3-.18,10.85,.36,5.85,.89,10.22,6.42,10.19,12.37H2.61Z"/><path d="M19.69,0c-6.16,0-11.23,5.11-11.21,11.33,.01,6.21,5.12,11.32,11.27,11.27,6.11-.05,11.14-5.12,11.17-11.25C30.94,5.15,25.84,0,19.69,0Zm-.11,19.83c-4.71-.02-8.51-3.85-8.49-8.57,.01-4.77,3.85-8.52,8.7-8.5,4.68,.01,8.54,3.89,8.52,8.57-.02,4.73-3.91,8.52-8.73,8.5Z"/></svg>